<?xml version="1.0" standalone="no"?>
<!DOCTYPE svg PUBLIC "-//W3C//DTD SVG 1.1//EN" "http://www.w3.org/Graphics/SVG/1.1/DTD/svg11.dtd">
<svg width="90mm" height="80mm" viewBox="0 -80 90 80" xmlns="http://www.w3.org/2000/svg" version="1.1">
<title>OpenSCAD Model</title>
<path d="
M 90,-80 L 0,-80 L 0,-0 L 90,-0 z
M 83.1981,-74.1322 L 83.1981,-75.8678 L 84.5549,-76.9499 L 86.247,-76.5637 L 87,-75 L 86.247,-73.4363
 L 84.5549,-73.0501 z
M 3.19806,-74.1322 L 3.19806,-75.8678 L 4.55495,-76.9499 L 6.24698,-76.5637 L 7,-75 L 6.24698,-73.4363
 L 4.55495,-73.0501 z
M 3.19806,-4.13222 L 3.19806,-5.86777 L 4.55495,-6.94984 L 6.24698,-6.56366 L 7,-5 L 6.24698,-3.43633
 L 4.55495,-3.05014 z
M 83.1981,-4.13222 L 83.1981,-5.86777 L 84.5549,-6.94984 L 86.247,-6.56366 L 87,-5 L 86.247,-3.43633
 L 84.5549,-3.05014 z
" stroke="black" fill="lightgray" stroke-width="0.5"/>
</svg>
