  0
SECTION
  2
BLOCKS
  0
ENDSEC
  0
SECTION
  2
ENTITIES
  0
LINE
  8
0
 10
90
 20
80
 11
0
 21
80
  0
LINE
  8
0
 10
0
 20
80
 11
0
 21
0
  0
LINE
  8
0
 10
0
 20
0
 11
90
 21
0
  0
LINE
  8
0
 10
90
 20
0
 11
90
 21
80
  0
LINE
  8
0
 10
83.1981
 20
74.1322
 11
83.1981
 21
75.8678
  0
LINE
  8
0
 10
83.1981
 20
75.8678
 11
84.5549
 21
76.9499
  0
LINE
  8
0
 10
84.5549
 20
76.9499
 11
86.247
 21
76.5637
  0
LINE
  8
0
 10
86.247
 20
76.5637
 11
87
 21
75
  0
LINE
  8
0
 10
87
 20
75
 11
86.247
 21
73.4363
  0
LINE
  8
0
 10
86.247
 20
73.4363
 11
84.5549
 21
73.0501
  0
LINE
  8
0
 10
84.5549
 20
73.0501
 11
83.1981
 21
74.1322
  0
LINE
  8
0
 10
3.19806
 20
74.1322
 11
3.19806
 21
75.8678
  0
LINE
  8
0
 10
3.19806
 20
75.8678
 11
4.55495
 21
76.9499
  0
LINE
  8
0
 10
4.55495
 20
76.9499
 11
6.24698
 21
76.5637
  0
LINE
  8
0
 10
6.24698
 20
76.5637
 11
7
 21
75
  0
LINE
  8
0
 10
7
 20
75
 11
6.24698
 21
73.4363
  0
LINE
  8
0
 10
6.24698
 20
73.4363
 11
4.55495
 21
73.0501
  0
LINE
  8
0
 10
4.55495
 20
73.0501
 11
3.19806
 21
74.1322
  0
LINE
  8
0
 10
3.19806
 20
4.13222
 11
3.19806
 21
5.86777
  0
LINE
  8
0
 10
3.19806
 20
5.86777
 11
4.55495
 21
6.94984
  0
LINE
  8
0
 10
4.55495
 20
6.94984
 11
6.24698
 21
6.56366
  0
LINE
  8
0
 10
6.24698
 20
6.56366
 11
7
 21
5
  0
LINE
  8
0
 10
7
 20
5
 11
6.24698
 21
3.43633
  0
LINE
  8
0
 10
6.24698
 20
3.43633
 11
4.55495
 21
3.05014
  0
LINE
  8
0
 10
4.55495
 20
3.05014
 11
3.19806
 21
4.13222
  0
LINE
  8
0
 10
83.1981
 20
4.13222
 11
83.1981
 21
5.86777
  0
LINE
  8
0
 10
83.1981
 20
5.86777
 11
84.5549
 21
6.94984
  0
LINE
  8
0
 10
84.5549
 20
6.94984
 11
86.247
 21
6.56366
  0
LINE
  8
0
 10
86.247
 20
6.56366
 11
87
 21
5
  0
LINE
  8
0
 10
87
 20
5
 11
86.247
 21
3.43633
  0
LINE
  8
0
 10
86.247
 20
3.43633
 11
84.5549
 21
3.05014
  0
LINE
  8
0
 10
84.5549
 20
3.05014
 11
83.1981
 21
4.13222
  0
ENDSEC
  0
SECTION
  2
OBJECTS
  0
DICTIONARY
  0
ENDSEC
  0
EOF
